HIERARCHY
ROOT Hips
{
	OFFSET 0.00000 0.00000 0.00000
	CHANNELS 6 Xposition Yposition Zposition Zrotation Yrotation Xrotation 
	JOINT LHipJoint
	{
		OFFSET 0 0 0
		CHANNELS 3 Zrotation Yrotation Xrotation
		JOINT LeftHip
		{
			OFFSET 1.53139 -1.83434 0.76626
			CHANNELS 3 Zrotation Yrotation Xrotation
			JOINT LeftKnee
			{
				OFFSET 2.56112 -7.03663 0.00000
				CHANNELS 3 Zrotation Yrotation Xrotation
				JOINT LeftAnkle
				{
					OFFSET 2.59983 -7.14299 0.00000
					CHANNELS 3 Zrotation Yrotation Xrotation
					JOINT LeftToe
					{
						OFFSET 0.13742 -0.37757 2.00054
						CHANNELS 3 Zrotation Yrotation Xrotation
						End Site
						{
							OFFSET 0.00000 -0.00000 1.02897
						}
					}
				}
			}
		}
	}
	JOINT RHipJoint
	{
		OFFSET 0 0 0
		CHANNELS 3 Zrotation Yrotation Xrotation
		JOINT RightHip
		{
			OFFSET -1.40122 -1.83435 0.76627
			CHANNELS 3 Zrotation Yrotation Xrotation
			JOINT RightKnee
			{
				OFFSET -2.54052 -6.98003 0.00000
				CHANNELS 3 Zrotation Yrotation Xrotation
				JOINT RightAnkle
				{
					OFFSET -2.63179 -7.23079 0.00000
					CHANNELS 3 Zrotation Yrotation Xrotation
					JOINT RightToe
					{
						OFFSET -0.24131 -0.66299 2.03908
						CHANNELS 3 Zrotation Yrotation Xrotation
						End Site
						{
							OFFSET -0.00000 -0.00000 1.07391
						}
					}
				}
			}
		}
	}
	JOINT lowerback
	{
		OFFSET 0 0 0
		CHANNELS 3 Zrotation Yrotation Xrotation
		JOINT Chest
		{
			OFFSET 0.01174 2.10302 -0.29778
			CHANNELS 3 Zrotation Yrotation Xrotation
			JOINT Chest2
			{
				OFFSET 0.00772 2.13227 -0.01247
				CHANNELS 3 Zrotation Yrotation Xrotation
				JOINT lowerneck
				{
					OFFSET 0 0 0
					CHANNELS 3 Zrotation Yrotation Xrotation
					JOINT Neck
					{
						OFFSET -0.09219 1.60848 0.31481
						CHANNELS 3 Zrotation Yrotation Xrotation
						JOINT Head
						{
							OFFSET 0.13974 1.65456 -0.31134
							CHANNELS 3 Zrotation Yrotation Xrotation
							End Site
							{
								OFFSET 0.04742 1.69515 -0.14578
							}
						}
					}
				}
				JOINT LeftCollar
				{
					OFFSET 0 0 0
					CHANNELS 3 Zrotation Yrotation Xrotation
					JOINT LeftShoulder
					{
						OFFSET 3.24909 1.02882 -0.23993
CHANNELS 3 Zrotation Xrotation Yrotation
						JOINT LeftElbow
						{
OFFSET 0 -5.329550 -0.000000
CHANNELS 3 Zrotation Xrotation Yrotation
							JOINT LeftWrist
							{
OFFSET 0 -3.692320 -0.000000
CHANNELS 3 Zrotation Xrotation Yrotation
								JOINT lhand
								{
									OFFSET 0 0 0
CHANNELS 3 Zrotation Xrotation Yrotation
									JOINT LFingers
									{
OFFSET 0 -0.536600 -0.000000
CHANNELS 3 Zrotation Xrotation Yrotation
										End Site
										{
OFFSET 0 -0.432620 -0.000000
										}
									}
								}
								JOINT LThumb
								{
OFFSET 0 0.000000 0.000000
CHANNELS 3 Zrotation Xrotation Yrotation
									End Site
									{
OFFSET 0 -0.439220 0.439220
									}
								}
							}
						}
					}
				}
				JOINT RightCollar
				{
					OFFSET 0 0 0
					CHANNELS 3 Zrotation Yrotation Xrotation
					JOINT RightShoulder
					{
						OFFSET -3.21387 0.93002 -0.34594
CHANNELS 3 Zrotation Xrotation Yrotation
						JOINT RightElbow
						{
OFFSET 0 -5.234310 0.000000
CHANNELS 3 Zrotation Xrotation Yrotation
							JOINT RightWrist
							{
OFFSET 0 -3.553010 -0.000000
CHANNELS 3 Zrotation Xrotation Yrotation
								JOINT rhand
								{
									OFFSET 0 0 0
CHANNELS 3 Zrotation Xrotation Yrotation
									JOINT RFingers
									{
OFFSET 0 -0.772520 -0.000000
CHANNELS 3 Zrotation Xrotation Yrotation
										End Site
										{
OFFSET 0 -0.622830 -0.000000
										}
									}
								}
								JOINT RThumb
								{
OFFSET 0 0.000000 0.000000
CHANNELS 3 Zrotation Xrotation Yrotation
									End Site
									{
OFFSET 0 -0.632340 0.632340
									}
								}
							}
						}
					}
				}
			}
		}
	}
}
MOTION
Frames: 7
Frame Time: 0.008333333333333333
15.888500 17.904400 -10.260700 2.657300 -43.021600 1.784400 0.000000 0.000000 0.000000 -24.140900 -6.762900 -7.591600 1.624600 8.036100 22.823700 0.316400 -8.364700 -10.832800 0.034300 1.195800 3.287700 0.000000 0.000000 0.000000 21.898300 6.276600 -11.822800 -3.033400 -10.749000 31.437800 -1.095600 4.920700 -18.758200 -0.091400 -1.949700 5.366700 -1.612000 0.079800 6.767200 0.350800 -0.019400 -1.910800 1.273500 0.054300 -5.789100 -11.304800 -5.236500 -22.356500 9.470900 -6.125200 23.078300 4.409100 -2.581400 11.951800 0.000000 -0.000000 0.000000 2.363700 3.990700 -25.143300 15.693900 -25.103900 3.515100 16.691900 17.587700 -25.057500 0.000000 0.000000 0.000000 -7.125000 0.000000 0.000000 -13.873600 55.455600 3.611100 0.000000 -0.000000 0.000000 -1.063400 2.900200 14.955000 -14.981300 -24.120000 -3.218300 -10.286600 10.812100 -9.542500 0.000000 0.000000 0.000000 7.125000 0.000000 -0.000000 11.886200 20.377000 7.157200
15.887578 17.904116 -10.257791 2.639349 -43.074956 1.801216 0.000000 0.000000 0.000000 -24.115499 -6.617662 -7.653399 1.627722 8.043408 22.846050 0.307744 -8.468289 -10.754611 0.041750 1.316205 3.619328 0.000000 0.000000 0.000000 21.916038 6.341095 -11.795909 -3.031059 -10.745240 31.425313 -1.097516 4.903672 -18.776435 -0.097360 -2.012066 5.538899 -1.598164 0.113431 6.756132 0.327812 0.025654 -1.916902 1.236534 0.075656 -5.790661 -11.127492 -5.239551 -22.280795 9.242507 -6.128535 22.990959 4.287773 -2.596655 11.888653 0.000000 0.000000 0.000000 2.401801 3.951819 -25.242987 15.717385 -25.135970 3.525104 16.685940 17.563789 -25.425597 0.000000 0.000000 0.000000 -7.125000 0.000000 0.000000 -14.069639 55.816815 3.788550 0.000000 0.000000 0.000000 -0.993158 2.853088 14.804866 -14.996129 -24.140647 -3.224331 -10.137460 10.920798 -9.738397 0.000000 0.000000 0.000000 7.125000 0.000000 0.000000 11.980566 20.188482 7.268736
15.886613 17.904251 -10.254253 2.592527 -43.129191 1.841539 0.000000 0.000000 0.000000 -24.075516 -6.533938 -7.691313 1.630718 8.050423 22.867352 0.302147 -8.519332 -10.698631 0.050666 1.449055 3.985358 0.000000 0.000000 0.000000 21.951920 6.409990 -11.762230 -3.027292 -10.739133 31.405031 -1.096456 4.901058 -18.767348 -0.100973 -2.049123 5.641372 -1.558852 0.131558 6.756628 0.312282 0.052397 -1.938089 1.195169 0.087459 -5.814012 -11.005203 -5.233341 -22.223611 9.103954 -6.126338 22.944389 4.212790 -2.603151 11.849601 0.000000 0.000000 0.000000 2.411450 3.974493 -25.244537 15.764042 -25.199593 3.544956 16.554480 17.526847 -25.631319 0.000000 0.000000 0.000000 -7.125000 0.000000 0.000000 -14.311521 55.992608 3.916554 0.000000 0.000000 0.000000 -0.913571 2.798182 14.653937 -14.982757 -24.122031 -3.218880 -10.132760 11.094529 -9.889500 0.000000 0.000000 0.000000 7.125000 0.000000 0.000000 11.975621 20.038598 7.306564
15.885491 17.904587 -10.250319 2.533918 -43.181941 1.889365 0.000000 0.000000 0.000000 -24.032649 -6.498860 -7.708144 1.634206 8.058597 22.892106 0.301768 -8.508791 -10.690158 0.056949 1.538471 4.231752 0.000000 0.000000 0.000000 21.995135 6.472898 -11.720439 -3.022012 -10.730576 31.376583 -1.093579 4.909350 -18.741328 -0.102484 -2.063994 5.682628 -1.510902 0.138037 6.767135 0.304263 0.064530 -1.969283 1.158491 0.092060 -5.853097 -10.963591 -5.233245 -22.195874 9.065281 -6.133278 22.942782 4.189719 -2.608205 11.841494 0.000000 0.000000 0.000000 2.389407 4.042166 -25.163851 15.823768 -25.281015 3.570374 16.333025 17.491308 -25.669691 0.000000 0.000000 0.000000 -7.125000 0.000000 0.000000 -14.559073 55.985588 3.983492 0.000000 0.000000 0.000000 -0.831544 2.742655 14.507276 -14.954605 -24.082842 -3.207412 -10.233820 11.306338 -9.994305 0.000000 0.000000 0.000000 7.125000 0.000000 0.000000 11.898720 19.930396 7.287177
15.883789 17.904516 -10.246558 2.512490 -43.225222 1.897454 0.000000 0.000000 0.000000 -24.022432 -6.490914 -7.704526 1.640307 8.072929 22.935741 0.315391 -8.384555 -10.826811 0.046732 1.392594 3.829669 0.000000 0.000000 0.000000 22.014647 6.494964 -11.663252 -3.014349 -10.718302 31.335644 -1.091805 4.921766 -18.724370 -0.101846 -2.057893 5.665670 -1.503736 0.140449 6.786647 0.306817 0.068007 -1.998444 1.156789 0.094047 -5.895030 -11.114221 -5.289794 -22.243199 9.196542 -6.198837 23.016642 4.256059 -2.634173 11.897758 0.000000 0.000000 0.000000 2.313276 4.120355 -25.018967 15.869958 -25.344020 3.590098 16.098033 17.502944 -25.460455 0.000000 0.000000 0.000000 -7.125000 0.000000 0.000000 -14.688630 55.733285 3.929356 0.000000 0.000000 0.000000 -0.767758 2.708741 14.382401 -14.948006 -24.073689 -3.204715 -10.360327 11.486484 -10.030206 0.000000 0.000000 0.000000 7.125000 0.000000 0.000000 11.807760 19.889528 7.240136
15.882250 17.904062 -10.243072 2.422232 -43.268776 1.930238 0.000000 0.000000 0.000000 -23.954171 -6.480503 -7.676376 1.646081 8.086330 22.976583 0.326549 -8.257910 -10.931321 0.045605 1.377918 3.789208 0.000000 0.000000 0.000000 22.095323 6.453072 -11.610501 -3.006029 -10.704822 31.290707 -1.090852 4.946777 -18.713929 -0.092884 -1.964069 5.406354 -1.447835 0.149980 6.811744 0.317311 0.085994 -2.002800 1.134168 0.101290 -5.914292 -11.381814 -5.395569 -22.312591 9.460262 -6.327806 23.078785 4.382085 -2.681771 11.972038 0.000000 0.000000 0.000000 2.307728 4.156544 -25.050514 15.914997 -25.405273 3.609439 16.170508 17.506202 -25.353014 0.000000 0.000000 0.000000 -7.125000 0.000000 0.000000 -14.558307 55.642298 3.861366 0.000000 0.000000 0.000000 -0.718976 2.717975 14.420212 -15.016426 -24.168960 -3.232738 -10.455402 11.400562 -9.994922 0.000000 0.000000 0.000000 7.125000 0.000000 0.000000 11.742591 19.920557 7.190139
15.881351 17.903931 -10.239743 2.290820 -43.308735 2.001846 0.000000 0.000000 0.000000 -23.850775 -6.461728 -7.663621 1.650291 8.096088 23.006342 0.332094 -8.214776 -10.989278 0.047731 1.409677 3.876746 0.000000 0.000000 0.000000 22.208614 6.420290 -11.575155 -2.998826 -10.693146 31.251813 -1.087958 4.930084 -18.689758 -0.082489 -1.851912 5.096550 -1.344665 0.161514 6.817899 0.318327 0.110767 -1.998843 1.074253 0.109779 -5.913970 -11.595685 -5.490014 -22.340947 9.698880 -6.452697 23.082135 4.488586 -2.726432 12.012413 0.000000 0.000000 0.000000 2.362646 4.141568 -25.167968 15.938718 -25.437495 3.619643 16.361161 17.447054 -25.245237 0.000000 0.000000 0.000000 -7.125000 0.000000 0.000000 -14.307833 55.574439 3.769431 0.000000 0.000000 0.000000 -0.650927 2.724339 14.514490 -15.100809 -24.286345 -3.267352 -10.585866 11.238319 -9.896115 0.000000 0.000000 0.000000 7.125000 0.000000 0.000000 11.655715 20.013315 7.110060
